<?xml version="1.0" encoding="UTF-8" standalone="no"?>
<!DOCTYPE svg PUBLIC "-//W3C//DTD SVG 1.1//EN" "http://www.w3.org/Graphics/SVG/1.1/DTD/svg11.dtd">
<svg width="100%" height="100%" viewBox="0 0 23 22" version="1.1" xmlns="http://www.w3.org/2000/svg" xmlns:xlink="http://www.w3.org/1999/xlink" xml:space="preserve" xmlns:serif="http://www.serif.com/" style="fill-rule:evenodd;clip-rule:evenodd;stroke-linejoin:round;stroke-miterlimit:2;">
    <g transform="matrix(1,0,0,1,-400.896,-302.759)">
        <g transform="matrix(20,0,0,20,403.357,320.766)">
            <path d="M0.355,-0.706L0.434,-0.706C0.434,-0.728 0.44,-0.748 0.45,-0.766C0.461,-0.784 0.476,-0.799 0.495,-0.81C0.513,-0.821 0.534,-0.826 0.558,-0.826C0.581,-0.826 0.603,-0.821 0.621,-0.81C0.64,-0.799 0.654,-0.784 0.665,-0.766C0.676,-0.748 0.681,-0.728 0.681,-0.706L0.76,-0.706C0.76,-0.741 0.751,-0.773 0.733,-0.802C0.715,-0.832 0.69,-0.856 0.66,-0.874C0.629,-0.891 0.595,-0.9 0.558,-0.9C0.521,-0.9 0.487,-0.891 0.456,-0.874C0.425,-0.856 0.401,-0.832 0.383,-0.802C0.365,-0.773 0.355,-0.741 0.355,-0.706ZM0.838,-0.71L0.278,-0.71C0.227,-0.71 0.188,-0.698 0.163,-0.673C0.137,-0.647 0.125,-0.61 0.125,-0.559L0.125,-0.374C0.168,-0.374 0.208,-0.365 0.247,-0.349C0.285,-0.332 0.318,-0.31 0.347,-0.281C0.376,-0.252 0.399,-0.218 0.415,-0.18C0.432,-0.142 0.44,-0.102 0.44,-0.059C0.44,-0.03 0.436,-0.003 0.429,0.023C0.421,0.05 0.411,0.075 0.397,0.098L0.853,0.098C0.896,0.098 0.93,0.085 0.955,0.06C0.979,0.035 0.991,-0.003 0.991,-0.054L0.991,-0.559C0.991,-0.61 0.978,-0.647 0.953,-0.673C0.927,-0.698 0.889,-0.71 0.838,-0.71ZM0.125,0.189C0.159,0.189 0.19,0.183 0.22,0.17C0.25,0.157 0.277,0.139 0.3,0.116C0.323,0.093 0.34,0.067 0.354,0.037C0.367,0.007 0.373,-0.025 0.373,-0.059C0.373,-0.093 0.367,-0.125 0.354,-0.155C0.341,-0.185 0.323,-0.211 0.3,-0.234C0.278,-0.257 0.251,-0.274 0.221,-0.287C0.191,-0.3 0.159,-0.307 0.125,-0.307C0.091,-0.307 0.059,-0.3 0.029,-0.287C-0.001,-0.274 -0.027,-0.257 -0.05,-0.234C-0.073,-0.211 -0.09,-0.184 -0.104,-0.155C-0.117,-0.125 -0.123,-0.093 -0.123,-0.059C-0.123,-0.024 -0.117,0.008 -0.104,0.038C-0.09,0.068 -0.073,0.094 -0.05,0.117C-0.027,0.139 -0.001,0.157 0.029,0.17C0.059,0.183 0.091,0.189 0.125,0.189ZM0.125,0.103C0.117,0.103 0.109,0.1 0.103,0.094C0.096,0.089 0.093,0.081 0.093,0.072L0.093,-0.029L-0,-0.029C-0.009,-0.029 -0.016,-0.032 -0.021,-0.038C-0.027,-0.043 -0.03,-0.05 -0.03,-0.059C-0.03,-0.067 -0.027,-0.074 -0.021,-0.08C-0.016,-0.086 -0.009,-0.089 -0,-0.089L0.093,-0.089L0.093,-0.19C0.093,-0.199 0.096,-0.206 0.103,-0.212C0.109,-0.217 0.117,-0.22 0.125,-0.22C0.133,-0.22 0.141,-0.217 0.147,-0.212C0.154,-0.206 0.157,-0.199 0.157,-0.19L0.157,-0.089L0.25,-0.089C0.259,-0.089 0.266,-0.086 0.271,-0.08C0.277,-0.074 0.28,-0.067 0.28,-0.059C0.28,-0.05 0.277,-0.043 0.271,-0.038C0.266,-0.032 0.259,-0.029 0.25,-0.029L0.157,-0.029L0.157,0.072C0.157,0.081 0.154,0.089 0.147,0.094C0.141,0.1 0.133,0.103 0.125,0.103Z" style="fill-rule:nonzero;"/>
        </g>
    </g>
</svg>
