<?xml version="1.0" encoding="UTF-8" standalone="no"?>
<!DOCTYPE svg PUBLIC "-//W3C//DTD SVG 1.1//EN" "http://www.w3.org/Graphics/SVG/1.1/DTD/svg11.dtd">
<svg width="100%" height="100%" viewBox="0 0 20 22" version="1.1" xmlns="http://www.w3.org/2000/svg" xmlns:xlink="http://www.w3.org/1999/xlink" xml:space="preserve" xmlns:serif="http://www.serif.com/" style="fill-rule:evenodd;clip-rule:evenodd;stroke-linejoin:round;stroke-miterlimit:2;">
    <g transform="matrix(1,0,0,1,-314.252,-201.421)">
        <g transform="matrix(20,0,0,20,311.82,219.087)">
            <path d="M0.621,0.201C0.63,0.201 0.638,0.199 0.646,0.195C0.655,0.191 0.664,0.186 0.674,0.18L1.094,-0.067C1.103,-0.073 1.109,-0.079 1.114,-0.087C1.118,-0.094 1.12,-0.102 1.12,-0.11C1.12,-0.12 1.117,-0.128 1.111,-0.136C1.105,-0.144 1.099,-0.149 1.092,-0.153L0.64,0.109C0.636,0.111 0.633,0.112 0.63,0.114C0.627,0.115 0.624,0.116 0.621,0.116C0.618,0.116 0.615,0.115 0.612,0.114C0.609,0.112 0.606,0.111 0.602,0.109L0.15,-0.153C0.143,-0.149 0.137,-0.144 0.131,-0.136C0.125,-0.128 0.122,-0.12 0.122,-0.11C0.122,-0.102 0.124,-0.094 0.128,-0.087C0.133,-0.079 0.139,-0.073 0.148,-0.067L0.567,0.18C0.578,0.186 0.587,0.191 0.595,0.195C0.603,0.199 0.612,0.201 0.621,0.201ZM0.621,-0.024C0.63,-0.024 0.638,-0.026 0.646,-0.03C0.655,-0.034 0.664,-0.039 0.674,-0.044L1.094,-0.292C1.103,-0.298 1.11,-0.304 1.114,-0.312C1.118,-0.319 1.12,-0.327 1.12,-0.334C1.12,-0.345 1.117,-0.353 1.111,-0.361C1.105,-0.369 1.099,-0.374 1.092,-0.377L0.64,-0.116C0.636,-0.114 0.633,-0.113 0.63,-0.111C0.627,-0.11 0.624,-0.109 0.621,-0.109C0.618,-0.109 0.615,-0.11 0.612,-0.111C0.609,-0.113 0.606,-0.114 0.602,-0.116L0.15,-0.377C0.143,-0.374 0.137,-0.369 0.131,-0.361C0.125,-0.353 0.122,-0.345 0.122,-0.334C0.122,-0.327 0.124,-0.319 0.128,-0.312C0.133,-0.304 0.139,-0.298 0.148,-0.292L0.567,-0.044C0.578,-0.039 0.587,-0.034 0.595,-0.03C0.603,-0.026 0.612,-0.024 0.621,-0.024ZM0.621,-0.265C0.631,-0.265 0.641,-0.266 0.651,-0.27C0.661,-0.273 0.671,-0.278 0.683,-0.285L1.065,-0.506C1.085,-0.518 1.099,-0.529 1.107,-0.539C1.115,-0.549 1.12,-0.561 1.12,-0.574C1.12,-0.588 1.115,-0.599 1.107,-0.609C1.099,-0.619 1.085,-0.63 1.065,-0.642L0.683,-0.863C0.671,-0.87 0.661,-0.875 0.651,-0.878C0.641,-0.882 0.631,-0.883 0.621,-0.883C0.611,-0.883 0.601,-0.882 0.591,-0.878C0.582,-0.875 0.571,-0.87 0.559,-0.863L0.177,-0.642C0.157,-0.63 0.143,-0.619 0.135,-0.609C0.126,-0.599 0.122,-0.588 0.122,-0.574C0.122,-0.561 0.126,-0.549 0.135,-0.539C0.143,-0.529 0.157,-0.518 0.177,-0.506L0.559,-0.285C0.571,-0.278 0.582,-0.273 0.591,-0.27C0.601,-0.266 0.611,-0.265 0.621,-0.265Z" style="fill-rule:nonzero;"/>
        </g>
    </g>
</svg>
