<?xml version="1.0" encoding="UTF-8" standalone="no"?><!DOCTYPE svg PUBLIC "-//W3C//DTD SVG 1.1//EN" "http://www.w3.org/Graphics/SVG/1.1/DTD/svg11.dtd"><svg width="100%" height="100%" viewBox="0 0 512 512" version="1.1" xmlns="http://www.w3.org/2000/svg" xmlns:xlink="http://www.w3.org/1999/xlink" xml:space="preserve" xmlns:serif="http://www.serif.com/" style="fill-rule:evenodd;clip-rule:evenodd;stroke-linejoin:round;stroke-miterlimit:2;"><rect x="0" y="0" width="512" height="512" style="fill:#cbcbcb;"/><g><path d="M342.121,74.241c0,-22.662 -18.399,-41.061 -41.061,-41.061l-82.12,0c-22.662,0 -41.061,18.399 -41.061,41.061l0,194.699c0,22.661 18.399,41.06 41.061,41.06l82.12,0c22.662,0 41.061,-18.399 41.061,-41.06l0,-194.699Z" style="fill:#565656;"/><path d="M284.147,193.663c0,-6.663 -5.41,-12.073 -12.074,-12.073l-24.146,0c-6.664,0 -12.074,5.41 -12.074,12.073l0,252.674c0,6.663 5.41,12.073 12.074,12.073l24.146,0c6.664,0 12.074,-5.41 12.074,-12.073l0,-252.674Z" style="fill:#565656;"/><path d="M397.121,443.641c0,-7.529 -6.112,-13.641 -13.641,-13.641l-246.96,0c-7.529,0 -13.641,6.112 -13.641,13.641l0,27.281c0,7.528 6.112,13.64 13.641,13.64l246.96,0c7.529,0 13.641,-6.112 13.641,-13.64l0,-27.281Z" style="fill:#565656;"/></g><path d="M315,59.659c0,-1.902 -1.545,-3.447 -3.447,-3.447l-103.106,0c-1.902,0 -3.447,1.545 -3.447,3.447l0,6.894c0,1.902 1.545,3.447 3.447,3.447l103.106,0c1.902,0 3.447,-1.545 3.447,-3.447l0,-6.894Z" style="fill:#b4b4b4;"/><path d="M315,79.659c0,-1.902 -1.545,-3.447 -3.447,-3.447l-103.106,0c-1.902,0 -3.447,1.545 -3.447,3.447l0,6.894c0,1.902 1.545,3.447 3.447,3.447l103.106,0c1.902,0 3.447,-1.545 3.447,-3.447l0,-6.894Z" style="fill:#b4b4b4;"/><path d="M315,99.659c0,-1.902 -1.545,-3.447 -3.447,-3.447l-103.106,0c-1.902,0 -3.447,1.545 -3.447,3.447l0,6.894c0,1.902 1.545,3.447 3.447,3.447l103.106,0c1.902,0 3.447,-1.545 3.447,-3.447l0,-6.894Z" style="fill:#b4b4b4;"/><path d="M315,119.659c0,-1.902 -1.545,-3.447 -3.447,-3.447l-103.106,0c-1.902,0 -3.447,1.545 -3.447,3.447l0,6.894c0,1.902 1.545,3.447 3.447,3.447l103.106,0c1.902,0 3.447,-1.545 3.447,-3.447l0,-6.894Z" style="fill:#b4b4b4;"/><path d="M315,99.659c0,-1.902 -1.545,-3.447 -3.447,-3.447l-103.106,0c-1.902,0 -3.447,1.545 -3.447,3.447l0,6.894c0,1.902 1.545,3.447 3.447,3.447l103.106,0c1.902,0 3.447,-1.545 3.447,-3.447l0,-6.894Z" style="fill:#b4b4b4;"/><path d="M315,119.659c0,-1.902 -1.545,-3.447 -3.447,-3.447l-103.106,0c-1.902,0 -3.447,1.545 -3.447,3.447l0,6.894c0,1.902 1.545,3.447 3.447,3.447l103.106,0c1.902,0 3.447,-1.545 3.447,-3.447l0,-6.894Z" style="fill:#b4b4b4;"/><path d="M315,139.659c0,-1.902 -1.545,-3.447 -3.447,-3.447l-103.106,0c-1.902,0 -3.447,1.545 -3.447,3.447l0,6.894c0,1.902 1.545,3.447 3.447,3.447l103.106,0c1.902,0 3.447,-1.545 3.447,-3.447l0,-6.894Z" style="fill:#b4b4b4;"/><path d="M315,159.659c0,-1.902 -1.545,-3.447 -3.447,-3.447l-103.106,0c-1.902,0 -3.447,1.545 -3.447,3.447l0,6.894c0,1.902 1.545,3.447 3.447,3.447l103.106,0c1.902,0 3.447,-1.545 3.447,-3.447l0,-6.894Z" style="fill:#b4b4b4;"/></svg>