<?xml version="1.0" encoding="UTF-8" standalone="no"?>
<!DOCTYPE svg PUBLIC "-//W3C//DTD SVG 1.1//EN" "http://www.w3.org/Graphics/SVG/1.1/DTD/svg11.dtd">
<svg width="100%" height="100%" viewBox="0 0 512 512" version="1.1" xmlns="http://www.w3.org/2000/svg" xmlns:xlink="http://www.w3.org/1999/xlink" xml:space="preserve" xmlns:serif="http://www.serif.com/" style="fill-rule:evenodd;clip-rule:evenodd;stroke-linejoin:round;stroke-miterlimit:1.41421;">
    <rect x="0" y="0" width="256" height="256" style="fill:rgb(217,101,38);"/>
    <g transform="matrix(1,0,0,1,256,0)">
        <rect x="0" y="0" width="256" height="256" style="fill:rgb(217,164,38);"/>
    </g>
    <g transform="matrix(1,0,0,1,256,256)">
        <rect x="0" y="0" width="256" height="256" style="fill:rgb(38,217,185);"/>
    </g>
    <g transform="matrix(1,0,0,1,0,256)">
        <rect x="0" y="0" width="256" height="256" style="fill:rgb(206,217,38);"/>
    </g>
    <g transform="matrix(1,0,0,1,-70.0897,69.9706)">
        <text x="87.91px" y="161.108px" style="font-family:'Arial-BoldMT', 'Arial', sans-serif;font-weight:700;font-size:288px;">G</text>
    </g>
    <g transform="matrix(1,0,0,1,185.91,69.9706)">
        <text x="87.91px" y="161.108px" style="font-family:'Arial-BoldMT', 'Arial', sans-serif;font-weight:700;font-size:288px;">G</text>
    </g>
    <g transform="matrix(1,0,0,1,-63.3397,325.971)">
        <text x="87.91px" y="161.108px" style="font-family:'Arial-BoldMT', 'Arial', sans-serif;font-weight:700;font-size:288px;">C</text>
    </g>
    <g transform="matrix(1,0,0,1,248.067,297.564)">
        <text x="87.91px" y="161.108px" style="font-family:'Arial-BoldMT', 'Arial', sans-serif;font-weight:700;font-size:288px;">:</text>
    </g>
</svg>
