<?xml version="1.0" encoding="UTF-8" standalone="no"?>
<!DOCTYPE svg PUBLIC "-//W3C//DTD SVG 1.1//EN" "http://www.w3.org/Graphics/SVG/1.1/DTD/svg11.dtd">
<svg width="100%" height="100%" viewBox="0 0 36 36" version="1.1" xmlns="http://www.w3.org/2000/svg"
     xmlns:xlink="http://www.w3.org/1999/xlink" xml:space="preserve" xmlns:serif="http://www.serif.com/"
     style="fill-rule:evenodd;clip-rule:evenodd;stroke-linejoin:round;stroke-miterlimit:1.41421;">
    <g transform="matrix(-1.11101e-17,-0.0604808,0.0604808,-1.11101e-17,-8.52777,41.9702)">
        <g opacity="0.5">
            <g>
                <g transform="matrix(0.992855,-0.695205,-0.573576,-0.819152,331.275,1006.56)">
                    <path d="M218.13,264.163L252.868,324.295L517.887,324.295L483.148,264.163L218.13,264.163Z"
                          style="fill:rgb(102,102,102);"/>
                </g>
                <g transform="matrix(0.992855,-0.695205,-0.573576,-0.819152,331.275,935.67)">
                    <path d="M484.341,266.228L483.148,264.163L218.13,264.163L252.868,324.295L415.922,324.295L484.341,266.228Z"
                          style="fill:rgb(153,153,153);"/>
                </g>
                <g transform="matrix(0.992855,0.695205,-0.573576,0.819152,68.1495,12.8381)">
                    <path d="M218.13,264.163L252.868,324.295L517.887,324.295L483.148,264.163L218.13,264.163Z"
                          style="fill:rgb(128,128,128);"/>
                </g>
                <g transform="matrix(0.992855,0.695205,-0.573576,0.819152,69.1495,-58.0479)">
                    <path d="M323.972,264.163L483.148,264.163L517.887,324.295L253.12,324.295L323.972,264.163Z"
                          style="fill:rgb(153,153,153);"/>
                </g>
                <g transform="matrix(0.000370244,-1.21205,1,0.000305469,72.8414,846.551)">
                    <path d="M483.148,264.163L517.887,324.295L212.968,324.295L212.968,264.163L483.148,264.163Z"
                          style="fill:rgb(140,140,140);"/>
                </g>
                <g transform="matrix(-0.000370244,-1.21205,-1,0.000305469,720.814,846.551)">
                    <path d="M483.148,264.163L517.887,324.295L212.968,324.295L212.968,264.163L483.148,264.163Z"
                          style="fill:rgb(115,115,115);"/>
                </g>
            </g>
            <g transform="matrix(0.000370244,1.21205,1,-0.000305469,72.8414,10.9155)">
                <path d="M483.148,264.163L517.887,324.295L212.968,324.295L212.968,264.163L483.148,264.163Z"
                      style="fill:rgb(140,140,140);"/>
            </g>
            <g transform="matrix(-0.000370244,1.21205,-1,-0.000305469,720.814,10.9155)">
                <path d="M483.148,264.163L517.887,324.295L212.968,324.295L212.968,264.163L483.148,264.163Z"
                      style="fill:rgb(115,115,115);"/>
            </g>
        </g>
    </g>
</svg>
